<svg xmlns="http://www.w3.org/2000/svg" width="64" height="64" viewBox="0 0 16.933 16.933" id="thumb-up"><path fill="#e4eff8" d="M 2.3823402,1.5875621 C 1.9550302,1.3574531 1.6893602,0.9277749 1.5880502,0.52916666 1.4867302,0.9277749 1.2210702,1.3574531 0.79375014,1.5875621 1.2547602,1.833431 1.4834202,2.2728391 1.5880502,2.6459674 c 0.10462,-0.3731283 0.33328,-0.8125364 0.79429,-1.0584053 z"></path><path fill="#c4dcf0" d="m 1.5880702,0.52930665 c -0.0528,0.20780909 -0.15123,0.42344814 -0.293,0.61546735 0.10448,0.1762392 0.24613,0.3327386 0.45062,0.4428581 -0.21358,0.1138995 -0.35233,0.2701788 -0.45217,0.441318 0.14445,0.1983392 0.23838,0.4166782 0.29455,0.6170173 0.10463,-0.3731283 0.33326,-0.8124664 0.79427,-1.0583353 -0.42732,-0.230109 -0.69295,-0.6597172 -0.79427,-1.05832545 z"></path><path fill="#e4eff8" d="m 5.5618802,3.3073545 c -0.49852,0.2588789 -0.80846,0.7422567 -0.9266,1.1906848 -0.11814,-0.4484281 -0.42808,-0.9318059 -0.9266,-1.1906848 0.53784,-0.2765988 0.80459,-0.7709266 0.9266,-1.1906848 0.12201,0.4197582 0.38877,0.914086 0.9266,1.1906848 z"></path><path fill="#c4dcf0" d="m 4.6352802,4.4979093 c -0.0564,-0.2139591 -0.15793,-0.4349681 -0.30127,-0.6366572 0.11613,-0.2210591 0.28087,-0.4185882 0.54157,-0.5539676 -0.27174,-0.1397394 -0.43366,-0.3350785 -0.54364,-0.5482876 0.14656,-0.2088091 0.24297,-0.4346181 0.30334,-0.6423272 0.12201,0.4197582 0.38872,0.914026 0.92656,1.1906148 -0.49852,0.2588789 -0.80842,0.7421867 -0.92656,1.1906248 z"></path><path fill="#e4eff8" d="M 0.79375014,5.8208434 C 1.5620802,5.4522851 1.9431702,4.793598 2.1172602,4.2342704 c 0.17409,0.5593276 0.55518,1.2180147 1.32351,1.586573 -0.71217,0.3449585 -1.15493,0.9890557 -1.32351,1.5865831 -0.16858,-0.5975274 -0.61134,-1.2416246 -1.32351006,-1.5865831 z"></path><path fill="#c4dcf0" d="m 2.1173302,4.2345004 c -0.0677,0.2174891 -0.16814,0.449738 -0.30903,0.6743771 0.14473,0.3530384 0.36969,0.6868469 0.83923,0.9120859 -0.44424,0.2151791 -0.68054,0.5464676 -0.83664,0.910536 0.14078,0.2195791 0.24301,0.4511181 0.30644,0.6759171 0.16858,-0.5975174 0.61126,-1.2415046 1.32343,-1.5864531 -0.76833,-0.3685683 -1.14934,-1.0271354 -1.32343,-1.586463 z"></path><path fill="#e4eff8" d="m 16.404166,1.5875621 c -0.42731,-0.230109 -0.69298,-0.6597872 -0.79429,-1.05839544 -0.101322,0.39860824 -0.366982,0.82828644 -0.794302,1.05839544 0.46101,0.2458689 0.68967,0.685277 0.794302,1.0584053 0.10462,-0.3731283 0.33328,-0.8125364 0.79429,-1.0584053 z"></path><path fill="#c4dcf0" d="m 15.609896,0.52930665 c -0.0528,0.20780909 -0.151232,0.42344814 -0.293002,0.61546735 0.10448,0.1762392 0.246132,0.3327386 0.450622,0.4428581 -0.213582,0.1138995 -0.352332,0.2701788 -0.452172,0.441318 0.14445,0.1983392 0.23838,0.4166782 0.294552,0.6170173 0.10463,-0.3731283 0.33326,-0.8124664 0.79427,-1.0583353 -0.42732,-0.230109 -0.69295,-0.6597172 -0.79427,-1.05832545 z"></path><path fill="#e4eff8" d="m 13.492624,3.3073545 c -0.49852,-0.2588789 -0.80846,-0.7422567 -0.9266,-1.1906848 -0.11814,0.4484281 -0.42808,0.9318059 -0.9266,1.1906848 0.53784,0.2765988 0.80459,0.7709266 0.9266,1.1906848 0.12201,-0.4197582 0.38877,-0.914086 0.9266,-1.1906848 z"></path><path fill="#c4dcf0" d="m 12.566024,2.1167997 c -0.0564,0.2139591 -0.15793,0.4349681 -0.30127,0.6366572 0.11613,0.2210591 0.28087,0.4185882 0.54157,0.5539676 -0.27174,0.1397394 -0.43366,0.3350785 -0.54364,0.5482876 0.14656,0.2088091 0.24297,0.4346181 0.30334,0.6423272 0.12201,-0.4197582 0.38872,-0.914026 0.92656,-1.1906148 -0.49852,-0.2588789 -0.80842,-0.7421867 -0.92656,-1.1906248 z"></path><path fill="#e4eff8" d="m 13.757146,5.8208434 c 0.76833,-0.3685583 1.14942,-1.0272454 1.32351,-1.586573 0.17409,0.5593276 0.55518,1.2180147 1.32351,1.586573 -0.71217,0.3449585 -1.15493,0.9890557 -1.32351,1.5865831 -0.16858,-0.5975274 -0.61134,-1.2416246 -1.32351,-1.5865831 z"></path><path fill="#c4dcf0" d="m 15.080726,4.2345004 c -0.0677,0.2174891 -0.16814,0.449738 -0.30903,0.6743771 0.14473,0.3530384 0.36969,0.6868469 0.83923,0.9120859 -0.44424,0.2151791 -0.68054,0.5464676 -0.83664,0.910536 0.14078,0.2195791 0.24301,0.4511181 0.30644,0.6759171 0.16858,-0.5975174 0.61126,-1.2415046 1.32343,-1.5864531 -0.76833,-0.3685683 -1.14934,-1.0271354 -1.32343,-1.586463 z"></path><path fill="#e4eff8" d="m 4.2333568,10.054259 h 1.05833 c 0.29316,0 0.52917,0.236009 0.52917,0.529168 v 4.762479 c 0,0.293158 -0.23601,0.529167 -0.52917,0.529167 h -1.05833 z"></path><path fill="#ffc6a0" d="m 9.5250202,8.1195079 c 0,-1.3175942 -1.5875,-1.587493 -1.5875,-0.7937465 0,1.0643553 -0.51247,2.1995203 -1.16621,2.5769587 -0.39334,0.2270889 -1.21504,0.4161279 -1.21504,1.3008239 v 3.613434 c 0,0.439588 0.35254,0.793476 0.79044,0.793476 H 11.11252 c 0.43791,0 0.65196,-0.376448 0.79045,-0.793476 0.39522,-1.190225 1.06163,-3.307915 1.06163,-3.704654 0,-0.439588 -0.35584,-0.793476 -0.79375,-0.793476 H 9.5250202 Z"></path><path fill="#ffaf7a" d="M11.64167 10.318848c.43791 0 .79375.353638.79375.793226 0 .396739-.66622 2.514439-1.06144 3.704664-.13848.417028-.35274.793746-.79065.793746h.52917c.43791 0 .65216-.376718.79065-.793746.39522-1.190225 1.06143-3.307925 1.06143-3.704664 0-.439588-.35584-.793226-.79375-.793226zM8.1902002 6.9278232c.40083.1289294.80563.5262277.80563 1.1916547v1.9347581c0 .146579.11801.264579.26459.264579.14658 0 .26458.000029.26458.000029V8.1194779c0-.8234963-.62012-1.2375945-1.08521-1.2386695-.0912-.000195-.17616.015415-.24959.047015z"></path><path fill="#c4dcf0" d="M4.7625068 10.054259c.29316 0 .52916.236009.52916.529168v4.762479c0 .293158-.236.529167-.52916.529167h.52916c.29316 0 .52917-.236009.52917-.529167v-4.762479c0-.293159-.23601-.529168-.52917-.529168zM4.2333368 10.054259v5.820814h.52917v-5.820814z"></path><path fill="#ff9751" d="M8.4355471 4.4980392C8.3001828 4.5135863 8.1987537 4.6293839 8.2011721 4.7656161v.7929652c0 .3528629.5292969.3528629.5292969 0V4.7656161C8.7333211 4.6055841 8.5945486 4.4796785 8.4355471 4.4980392zM6.5761721 4.9921776c-.2380178.000082-.354921.2898513-.1835938.4550761l.5605469.5605444c.2485245.2662808.6399806-.1231347.375-.3730452L6.7675783 5.0722553C6.717338 5.0206191 6.6482151 4.9917005 6.5761721 4.9921776z" color="#000" font-family="sans-serif" font-weight="400" overflow="visible" style="line-height:normal;font-variant-ligatures:normal;font-variant-position:normal;font-variant-caps:normal;font-variant-numeric:normal;font-variant-alternates:normal;font-feature-settings:normal;text-indent:0;text-align:start;text-decoration-line:none;text-decoration-style:solid;text-decoration-color:#000;text-transform:none;text-orientation:mixed;shape-padding:0;isolation:auto;mix-blend-mode:normal"></path><path fill="#ff9751" d="m 1.058334,9.5250996 h 2.9104382 c 0.2931586,0 0.5291671,0.2360076 0.5291671,0.5291644 v 5.820807 c 0,0.293157 -0.2360085,0.529165 -0.5291671,0.529165 H 1.058334 c -0.29315868,0 -0.52916718,-0.236008 -0.52916718,-0.529165 v -5.820807 c 0,-0.2931568 0.2360085,-0.5291644 0.52916718,-0.5291644 z"></path><path fill="#ff7f29" d="m 3.4395901,9.5251017 c 0.29316,0 0.52916,0.235999 0.52916,0.5291573 v 5.820814 c 0,0.293159 -0.236,0.529158 -0.52916,0.529158 h 0.52916 c 0.29316,0 0.52917,-0.235999 0.52917,-0.529158 v -5.820814 c 0,-0.2931583 -0.23601,-0.5291573 -0.52917,-0.5291573 z"></path><path fill="#e4eff8" d="m 3.4395835,15.345906 c -2e-7,0.146124 -0.1184581,0.264581 -0.2645833,0.264581 -0.1461252,0 -0.2645831,-0.118457 -0.2645833,-0.264581 -4e-7,-0.146126 0.1184577,-0.264583 0.2645833,-0.264583 0.1461256,0 0.2645837,0.118457 0.2645833,0.264583 z"></path><path fill="#ff9751" style="line-height:normal;font-variant-ligatures:normal;font-variant-position:normal;font-variant-caps:normal;font-variant-numeric:normal;font-variant-alternates:normal;font-feature-settings:normal;text-indent:0;text-align:start;text-decoration-line:none;text-decoration-style:solid;text-decoration-color:#000;text-transform:none;text-orientation:mixed;shape-padding:0;isolation:auto;mix-blend-mode:normal" d="m 10.360009,4.9921776 c 0.238018,8.18e-5 0.354921,0.2898512 0.183594,0.4550761 L 9.9830561,6.0077981 C 9.7345316,6.2740789 9.3430755,5.8846634 9.6080561,5.6347529 L 10.168603,5.0722553 c 0.05024,-0.051636 0.119363,-0.080555 0.191406,-0.080078 z" color="#000" font-family="sans-serif" font-weight="400" overflow="visible"></path></svg>