<svg xmlns="http://www.w3.org/2000/svg" viewBox="0 0 512 512" id="find-jobs"><path fill="#676e87" d="m341.732 370.61 28.885-28.886 35.547 35.546-28.886 28.885z"></path><path fill="#595f74" d="m370.61 341.73-7.5 7.5 13.64 13.64a20.38 20.38 0 0 1 0 28.82l-7 7 7.5 7.5 28.88-28.88Z"></path><path fill="#ffcd85" d="M493.92 493.92a36.13 36.13 0 0 1-51.1 0l-65.54-65.54a15.7 15.7 0 0 1 0-22.22l28.88-28.88a15.7 15.7 0 0 1 22.22 0l65.54 65.54a36.13 36.13 0 0 1 0 51.1Z"></path><path fill="#ffc166" d="m493.92 442.82-65.54-65.54a15.7 15.7 0 0 0-22.22 0l-3.89 3.89 61.65 61.65a36.13 36.13 0 0 1 0 51.1 36.15 36.15 0 0 1-10.55 7.32 36.15 36.15 0 0 0 40.55-7.32 36.13 36.13 0 0 0 0-51.1Z"></path><circle cx="214.59" cy="214.59" r="207.19" fill="#b3e0ff" transform="rotate(-45 214.588 214.595)"></circle><circle cx="214.59" cy="214.59" r="166.73" fill="#d9f0ff"></circle><path fill="#676e87" d="M257.59 191h-86a7.5 7.5 0 0 1-7.5-7.5v-34a21.13 21.13 0 0 1 21.11-21.11H244a21.13 21.13 0 0 1 21.11 21.11v34a7.5 7.5 0 0 1-7.52 7.5Zm-78.5-15h71v-26.53a6.12 6.12 0 0 0-6.11-6.11H185.2a6.12 6.12 0 0 0-6.11 6.11Z"></path><rect width="187.61" height="124.82" x="120.79" y="168.5" fill="#ffc166" rx="12.31"></rect><path fill="#ffb74e" d="M296.08 168.5h-30a12.32 12.32 0 0 1 12.32 12.31V281a12.32 12.32 0 0 1-12.32 12.31h30A12.32 12.32 0 0 0 308.4 281V180.81a12.32 12.32 0 0 0-12.32-12.31Z"></path><path fill="#ffae36" d="m308.4 206-85.66 37.29a20.44 20.44 0 0 1-16.3 0L120.79 206v-25.19a12.31 12.31 0 0 1 12.31-12.31h163a12.32 12.32 0 0 1 12.32 12.31Z"></path><path fill="#ffa41f" d="M296.08 168.5h-30a12.32 12.32 0 0 1 12.32 12.31V219l30-13.06v-25.13a12.32 12.32 0 0 0-12.32-12.31Z"></path><rect width="30" height="30" x="199.59" y="227.05" fill="#676e87" rx="7"></rect><path fill="#595f74" d="M222.59 227.05h-11.48a7 7 0 0 1 7 7v16a7 7 0 0 1-7 7h11.48a7 7 0 0 0 7-7v-16a7 7 0 0 0-7-7Z"></path></svg>