<svg xmlns="http://www.w3.org/2000/svg" fill-rule="evenodd" stroke-linejoin="round" stroke-miterlimit="2" clip-rule="evenodd" viewBox="0 0 96 96" id="fast-delivery"><rect width="96" height="96" fill="none"></rect><path fill="#333" d="M18.741 73.738c3.991 0 5.649 3.24 3.698 7.232-1.95 3.991-6.773 7.232-10.765 7.232-3.991 0-5.649-3.241-3.699-7.232 1.951-3.992 6.774-7.232 10.766-7.232zM48.612 73.738c3.992 0 5.649 3.24 3.699 7.232-1.95 3.991-6.774 7.232-10.766 7.232-3.991 0-5.648-3.241-3.698-7.232 1.95-3.992 6.774-7.232 10.765-7.232z"></path><path fill="#f2af0d" d="M85.705,24.576c0.303,-0.62 0.265,-1.352 -0.101,-1.937c-0.365,-0.586 -1.006,-0.941 -1.696,-0.941c-10.654,-0 -44.618,-0 -51.565,-0c-0.765,-0 -1.462,0.435 -1.797,1.122c-3.701,7.573 -24.878,50.918 -24.878,50.918l56.017,-0c0,-0 18.686,-38.245 24.02,-49.162Z"></path><path fill="#b5830a" d="M66.129 21.698l-14.053 0c0 0-5.783 11.836-8.132 16.643-.153.313-.096.688.143.942.239.254.61.334.932.2 1.264-.525 2.894-1.203 4.238-1.761 1.576-.655 3.376-.459 4.774.519.46.322.935.654 1.367.956.406.285.917.377 1.397.253.48-.124.881-.452 1.099-.898 2.277-4.661 8.235-16.854 8.235-16.854zM15 69l11.915 0c.828 0 1.5-.672 1.5-1.5 0-.828-.672-1.5-1.5-1.5l-11.915 0c-.828 0-1.5.672-1.5 1.5 0 .828.672 1.5 1.5 1.5zm13.144-6.128l1.79-3.663c.363-.744.055-1.643-.689-2.006-.744-.364-1.643-.055-2.006.689l-1.79 3.663c-.364.744-.055 1.643.689 2.006.744.363 1.643.055 2.006-.689zm-6.511 0l1.789-3.663c.364-.744.055-1.643-.689-2.006-.744-.364-1.643-.055-2.006.689l-1.79 3.663c-.363.744-.054 1.643.689 2.006.744.363 1.643.055 2.007-.689z"></path><path fill="#f20d0d" d="M83.269,7.798c5.923,0 10.731,4.809 10.731,10.731c-0,4.43 -6.002,14.498 -9.028,19.293c-0.359,0.599 -1.005,0.965 -1.703,0.965c-0.698,0 -1.344,-0.366 -1.703,-0.964c-3.026,-4.796 -9.028,-14.864 -9.028,-19.294c0,-5.922 4.809,-10.731 10.731,-10.731Zm0,6.547c1.99,-0 3.605,1.615 3.605,3.605c0,1.99 -1.615,3.605 -3.605,3.605c-1.99,0 -3.605,-1.615 -3.605,-3.605c-0,-1.99 1.615,-3.605 3.605,-3.605Z"></path><path fill="#333" d="M2,44.487l10.797,-0c0.828,-0 1.5,-0.672 1.5,-1.5c-0,-0.828 -0.672,-1.5 -1.5,-1.5l-10.797,-0c-0.828,-0 -1.5,0.672 -1.5,1.5c-0,0.828 0.672,1.5 1.5,1.5Zm-0,-10.645l15.997,0c0.828,0 1.5,-0.672 1.5,-1.5c0,-0.828 -0.672,-1.5 -1.5,-1.5l-15.997,0c-0.828,0 -1.5,0.672 -1.5,1.5c-0,0.828 0.672,1.5 1.5,1.5Zm0,-10.644l21.198,-0c0.828,-0 1.5,-0.672 1.5,-1.5c0,-0.828 -0.672,-1.5 -1.5,-1.5l-21.198,-0c-0.828,-0 -1.5,0.672 -1.5,1.5c0,0.828 0.672,1.5 1.5,1.5Z"></path><path fill="none" d="M2,73.738l65.605,-0"></path></svg>